<svg width="21" height="20" viewBox="0 0 21 20" fill="none" xmlns="http://www.w3.org/2000/svg">
<path d="M2.16602 16.667H18.8327V18.3337H2.16602V16.667ZM3.83268 10.0003H5.49935V15.8337H3.83268V10.0003ZM7.99935 10.0003H9.66601V15.8337H7.99935V10.0003ZM11.3327 10.0003H12.9993V15.8337H11.3327V10.0003ZM15.4993 10.0003H17.166V15.8337H15.4993V10.0003ZM2.16602 5.83366L10.4993 1.66699L18.8327 5.83366V9.16699H2.16602V5.83366ZM3.83268 6.86372V7.50032H17.166V6.86372L10.4993 3.53038L3.83268 6.86372ZM10.4993 6.66699C10.0391 6.66699 9.66601 6.29389 9.66601 5.83366C9.66601 5.37343 10.0391 5.00032 10.4993 5.00032C10.9596 5.00032 11.3327 5.37343 11.3327 5.83366C11.3327 6.29389 10.9596 6.66699 10.4993 6.66699Z" fill="#1A3BAE"/>
</svg>
