<svg width="21" height="20" viewBox="0 0 21 20" fill="none" xmlns="http://www.w3.org/2000/svg">
<path d="M16.6487 12.5885C17.9378 9.53552 16.7808 5.92903 13.8365 4.22919C11.7089 3.00082 9.18568 3.07848 7.19511 4.21344L6.36814 2.7661C8.85634 1.34743 12.0103 1.25036 14.6698 2.78581C18.4121 4.94638 19.8446 9.5711 18.1011 13.4271L19.2193 14.0727L15.7483 15.9178L15.6108 11.9894L16.6487 12.5885ZM4.35768 7.41684C3.06853 10.4699 4.22564 14.0764 7.16985 15.7762C9.29743 17.0045 11.8206 16.9269 13.8111 15.792L14.6381 17.2394C12.1499 18.6579 8.99601 18.755 6.33652 17.2196C2.59432 15.059 1.16181 10.4343 2.90528 6.57829L1.78711 5.93271L5.258 4.08763L5.39555 8.01605L4.35768 7.41684ZM7.58652 11.6694H12.1698C12.4 11.6694 12.5865 11.4828 12.5865 11.2527C12.5865 11.0226 12.4 10.836 12.1698 10.836H8.83651C7.68593 10.836 6.75318 9.90327 6.75318 8.75269C6.75318 7.6021 7.68593 6.66936 8.83651 6.66936H9.66984V5.83603H11.3365V6.66936H13.4198V8.33602H8.83651C8.6064 8.33602 8.41985 8.5226 8.41985 8.75269C8.41985 8.98277 8.6064 9.16935 8.83651 9.16935H12.1698C13.3204 9.16935 14.2532 10.1021 14.2532 11.2527C14.2532 12.4033 13.3204 13.336 12.1698 13.336H11.3365V14.1694H9.66984V13.336H7.58652V11.6694Z" fill="#1A3BAE"/>
</svg>
