<svg width="118" height="18" viewBox="0 0 118 18" fill="none" xmlns="http://www.w3.org/2000/svg">
<path d="M0.541016 17.2575H4.53102V10.3275H12.4877V6.80415H4.53102V3.84082H13.001V0.34082H0.541016V17.2575Z" fill="#B8BCCC"/>
<path d="M19.7825 7.31749C21.2991 7.31749 22.5125 8.25082 22.5125 10.9342C22.5125 13.5708 21.3458 14.5742 19.7825 14.5742C18.2191 14.5742 17.0525 13.5708 17.0525 10.9342C17.0525 8.25082 18.2658 7.31749 19.7825 7.31749ZM19.7825 4.33082C16.3058 4.33082 13.1325 6.38415 13.1325 10.9342C13.1325 15.4842 16.3058 17.5608 19.7825 17.5608C23.2591 17.5608 26.4325 15.4842 26.4325 10.9342C26.4325 6.38415 23.2591 4.33082 19.7825 4.33082Z" fill="#B8BCCC"/>
<path d="M33.8253 4.33082C30.022 4.33082 27.4086 6.92082 27.4086 10.9108C27.4086 14.9008 29.6953 17.5608 33.8253 17.5608C36.3453 17.5608 39.3553 16.3708 40.2186 12.6375H36.6253C36.3453 13.8275 35.482 14.5742 34.0586 14.5742C32.682 14.5742 31.3286 13.6642 31.3286 10.9342C31.3286 8.25082 32.682 7.31749 34.0586 7.31749C35.202 7.31749 36.112 7.83082 36.462 9.30082H40.0553C39.3086 5.52082 36.4386 4.33082 33.8253 4.33082Z" fill="#B8BCCC"/>
<path d="M49.265 9.41749C44.3884 9.79082 40.9117 10.7942 40.9117 13.8742C40.9117 16.1608 42.8717 17.5608 45.2517 17.5608C47.0484 17.5608 48.5417 17.0708 49.475 15.7408L49.5217 17.2575H53.3017C53.115 16.4642 53.0217 14.9942 53.0217 13.6175V12.3108L53.0684 9.58082C53.1384 5.77749 51.085 4.30749 47.4684 4.30749C43.735 4.30749 41.495 6.40749 41.3084 8.76415H44.9017C45.065 7.55082 45.905 6.92082 47.1417 6.92082C48.5417 6.92082 49.265 7.43415 49.265 8.92749V9.41749ZM49.3584 11.9842C49.3584 14.2942 48.1917 14.9475 46.6517 14.9475C45.6484 14.9475 44.8784 14.4108 44.8784 13.5942C44.8784 12.2408 46.675 11.9375 49.3584 11.6808V11.9842Z" fill="#B8BCCC"/>
<path d="M58.8942 0.34082H55.0442V17.2575H58.8942V0.34082Z" fill="#B8BCCC"/>
<path d="M61.349 0.34082V17.2575H65.339V11.4008H67.859C72.2456 11.4008 75.5356 10.3042 75.5356 5.84749C75.5356 1.41415 72.2456 0.34082 67.859 0.34082H61.349ZM67.9756 3.70082C69.8423 3.70082 71.3123 4.07415 71.3123 5.84749C71.3123 7.62082 69.8423 8.04082 67.9756 8.04082H65.339V3.70082H67.9756Z" fill="#B8BCCC"/>
<path d="M82.2994 7.31749C83.8161 7.31749 85.0294 8.25082 85.0294 10.9342C85.0294 13.5708 83.8627 14.5742 82.2994 14.5742C80.7361 14.5742 79.5694 13.5708 79.5694 10.9342C79.5694 8.25082 80.7827 7.31749 82.2994 7.31749ZM82.2994 4.33082C78.8227 4.33082 75.6494 6.38415 75.6494 10.9342C75.6494 15.4842 78.8227 17.5608 82.2994 17.5608C85.7761 17.5608 88.9494 15.4842 88.9494 10.9342C88.9494 6.38415 85.7761 4.33082 82.2994 4.33082Z" fill="#B8BCCC"/>
<path d="M90.4899 4.70415V17.2575H94.3633V4.70415H90.4899ZM90.4899 0.34082V3.42082H94.34V0.34082H90.4899Z" fill="#B8BCCC"/>
<path d="M100.504 4.70415H96.6541V17.2575H100.504V10.8175C100.504 8.48415 101.181 7.41082 102.837 7.41082C104.704 7.41082 104.774 8.88082 104.774 10.6775V17.2575H108.624V9.72082C108.624 6.31415 107.621 4.42415 104.401 4.42415C102.417 4.42415 101.064 5.42749 100.504 6.36082V4.70415Z" fill="#B8BCCC"/>
<path d="M111.286 4.70415H109.303V7.43415H111.286V13.7342C111.286 16.6508 112.336 17.2575 115.44 17.2575H117.89V14.4808H116.793C115.51 14.4808 115.136 14.2475 115.136 13.0575V7.43415H117.89V4.70415H115.136V1.27415H111.286V4.70415Z" fill="#B8BCCC"/>
</svg>
