<svg width="37" height="38" viewBox="0 0 37 38" fill="none" xmlns="http://www.w3.org/2000/svg">
<path d="M10.1943 2.73797L14.4847 18.75V1.14604C14.8249 1.06665 15.1687 0.996737 15.5159 0.936588V18.7516L20.3416 0.742188C20.6893 0.77367 21.0343 0.814864 21.3761 0.865495L16.5117 19.02L26.181 2.27222C26.496 2.41393 26.8063 2.56428 27.1115 2.72296L17.4061 19.5332L31.2618 5.67752C31.5116 5.91375 31.7548 6.15693 31.991 6.40676L18.1333 20.2645L34.9455 10.5579C35.1042 10.8632 35.2545 11.1735 35.3962 11.4885L18.6525 21.1555L36.8021 16.2923C36.8527 16.6342 36.8939 16.9792 36.9253 17.3269L18.9161 22.1525L36.7307 22.1525C36.6705 22.4997 36.6006 22.8435 36.5211 23.1837L18.9134 23.1837L34.9285 27.475C34.764 27.7899 34.5907 28.0995 34.4088 28.4033L18.651 24.1811L31.8124 31.7798C31.5632 32.036 31.3066 32.285 31.043 32.5263L18.1365 25.0748L27.9026 34.8409C27.5937 35.0214 27.279 35.1931 26.959 35.3556L17.4063 25.803L23.6653 36.6439C23.3226 36.7408 22.9758 36.8279 22.6253 36.9051L16.5123 26.317L19.4596 37.3166C19.1969 37.3278 18.9328 37.3334 18.6673 37.3334C18.5767 37.3334 18.4863 37.3328 18.396 37.3315L15.5159 26.5831V37.0636C15.1687 37.0035 14.8249 36.9335 14.4847 36.8542V26.5848L11.9453 36.0619C11.6214 35.9342 11.302 35.7975 10.9874 35.6522L13.4882 26.3193L8.79377 34.4503C8.50314 34.2641 8.21811 34.0701 7.93899 33.8683L12.5965 25.8013L6.07397 32.3238C5.82415 32.0876 5.58097 31.8444 5.34474 31.5946L11.8652 25.0741L3.80048 29.7303C3.59868 29.4512 3.40455 29.1662 3.2184 28.8756L11.3532 24.1789L2.01565 26.6809C1.87032 26.3664 1.73363 26.047 1.6059 25.7231L11.083 23.1837L0.813492 23.1837C0.734084 22.8435 0.664148 22.4997 0.603979 22.1525H11.0802L0.335982 19.2736C0.334652 19.1826 0.333984 19.0914 0.333984 19.0001C0.333984 18.7353 0.339596 18.4719 0.350708 18.2099L11.3517 21.1576L0.762002 15.0436C0.839111 14.6931 0.926251 14.3463 1.02311 14.0036L11.8685 20.2652L2.31177 10.7085C2.47436 10.3884 2.64606 10.0737 2.82654 9.76483L12.5966 19.5349L5.14212 6.62333C5.38351 6.3597 5.63249 6.10314 5.88874 5.85402L13.4888 19.0177L9.26589 3.25758C9.56977 3.07572 9.87934 2.9024 10.1943 2.73797Z" fill="#B8BCCC"/>
</svg>
