<svg width="107" height="24" viewBox="0 0 107 24" fill="none" xmlns="http://www.w3.org/2000/svg">
<path d="M7.42242 18.567C6.16242 18.567 4.94131 18.3881 3.75909 18.0303C2.59242 17.6725 1.66687 17.1981 0.982422 16.607L2.03242 14.2503C2.70131 14.7792 3.51798 15.2148 4.48242 15.557C5.46242 15.8836 6.44242 16.047 7.42242 16.047C8.63575 16.047 9.53798 15.8525 10.1291 15.4636C10.7358 15.0748 11.0391 14.5614 11.0391 13.9236C11.0391 13.457 10.868 13.0759 10.5258 12.7803C10.1991 12.4692 9.77909 12.2281 9.26575 12.057C8.75242 11.8859 8.05242 11.6914 7.16575 11.4736C5.92131 11.1781 4.9102 10.8825 4.13242 10.587C3.3702 10.2914 2.70909 9.83253 2.14909 9.21031C1.60464 8.57253 1.33242 7.71698 1.33242 6.64364C1.33242 5.74142 1.57353 4.92476 2.05576 4.19365C2.55353 3.44698 3.29242 2.85587 4.27242 2.42031C5.26798 1.98476 6.48131 1.76698 7.91242 1.76698C8.90798 1.76698 9.88798 1.89142 10.8524 2.14031C11.8169 2.3892 12.6491 2.74698 13.3491 3.21365L12.3924 5.57031C11.6769 5.15031 10.9302 4.83142 10.1524 4.61365C9.37464 4.39587 8.6202 4.28698 7.88909 4.28698C6.69131 4.28698 5.79687 4.4892 5.20575 4.89365C4.6302 5.29809 4.34242 5.83476 4.34242 6.50365C4.34242 6.97031 4.50575 7.35142 4.83242 7.64698C5.17464 7.94253 5.60242 8.17587 6.11575 8.34698C6.62909 8.51809 7.32909 8.71253 8.21575 8.93031C9.42909 9.21031 10.4246 9.50587 11.2024 9.81698C11.9802 10.1125 12.6413 10.5714 13.1858 11.1936C13.7458 11.8159 14.0258 12.6559 14.0258 13.7136C14.0258 14.6159 13.7769 15.4325 13.2791 16.1636C12.7969 16.8948 12.058 17.4781 11.0624 17.9136C10.0669 18.3492 8.85353 18.567 7.42242 18.567Z" fill="#B8BCCC"/>
<path d="M16.7536 5.87364H19.6702V18.3336H16.7536V5.87364ZM18.2236 3.82031C17.6947 3.82031 17.2513 3.65698 16.8936 3.33031C16.5358 2.98809 16.3569 2.56809 16.3569 2.07031C16.3569 1.57253 16.5358 1.16031 16.8936 0.833645C17.2513 0.491423 17.6947 0.320312 18.2236 0.320312C18.7525 0.320312 19.1958 0.483646 19.5536 0.810312C19.9113 1.12142 20.0902 1.51809 20.0902 2.00031C20.0902 2.51365 19.9113 2.9492 19.5536 3.30698C19.2113 3.6492 18.768 3.82031 18.2236 3.82031Z" fill="#B8BCCC"/>
<path d="M27.3484 18.497C26.3372 18.497 25.3495 18.3648 24.385 18.1003C23.4206 17.8359 22.6506 17.5014 22.075 17.097L23.195 14.8803C23.755 15.2536 24.4239 15.557 25.2017 15.7903C25.995 16.0081 26.7728 16.117 27.535 16.117C29.2772 16.117 30.1484 15.6581 30.1484 14.7403C30.1484 14.3048 29.9228 14.0014 29.4717 13.8303C29.0361 13.6592 28.3284 13.4959 27.3484 13.3403C26.3217 13.1848 25.4817 13.0059 24.8284 12.8036C24.1906 12.6014 23.6306 12.2514 23.1484 11.7536C22.6817 11.2403 22.4484 10.5325 22.4484 9.63031C22.4484 8.44809 22.9384 7.50698 23.9184 6.80698C24.9139 6.09142 26.2517 5.73365 27.9317 5.73365C28.7872 5.73365 29.6428 5.83476 30.4984 6.03698C31.3539 6.22365 32.0539 6.48031 32.5984 6.80698L31.4784 9.02365C30.4206 8.40142 29.2306 8.09031 27.9084 8.09031C27.0528 8.09031 26.3995 8.22253 25.9484 8.48698C25.5128 8.73587 25.295 9.07031 25.295 9.49031C25.295 9.95698 25.5284 10.2914 25.995 10.4936C26.4772 10.6803 27.2161 10.8592 28.2117 11.0303C29.2072 11.1859 30.0239 11.3648 30.6617 11.567C31.2995 11.7692 31.8439 12.1114 32.295 12.5936C32.7617 13.0759 32.995 13.7603 32.995 14.647C32.995 15.8136 32.4895 16.747 31.4784 17.447C30.4672 18.147 29.0906 18.497 27.3484 18.497Z" fill="#B8BCCC"/>
<path d="M46.9456 5.87364L41.1123 19.337C40.5678 20.6903 39.9067 21.6392 39.1289 22.1836C38.3512 22.7436 37.4101 23.0236 36.3056 23.0236C35.6834 23.0236 35.069 22.9225 34.4623 22.7203C33.8556 22.5181 33.3578 22.2381 32.969 21.8803L34.1356 19.7336C34.4156 19.9981 34.7423 20.2081 35.1156 20.3636C35.5045 20.5192 35.8934 20.597 36.2823 20.597C36.7956 20.597 37.2156 20.4648 37.5423 20.2003C37.8845 19.9359 38.1956 19.4925 38.4756 18.8703L38.6856 18.3803L33.249 5.87364H36.2823L40.2023 15.0903L44.1456 5.87364H46.9456Z" fill="#B8BCCC"/>
<path d="M55.6752 5.73365C56.8885 5.73365 57.9696 5.99809 58.9185 6.52698C59.883 7.05587 60.6374 7.80253 61.1819 8.76698C61.7263 9.73142 61.9985 10.8436 61.9985 12.1036C61.9985 13.3636 61.7263 14.4836 61.1819 15.4636C60.6374 16.4281 59.883 17.1748 58.9185 17.7036C57.9696 18.2325 56.8885 18.497 55.6752 18.497C53.9952 18.497 52.6652 17.937 51.6852 16.817V22.8603H48.7685V5.87364H51.5452V7.50698C52.0274 6.91587 52.6185 6.47253 53.3185 6.17698C54.0341 5.88142 54.8196 5.73365 55.6752 5.73365ZM55.3485 16.0003C56.4219 16.0003 57.3008 15.6425 57.9852 14.927C58.6852 14.2114 59.0352 13.2703 59.0352 12.1036C59.0352 10.937 58.6852 9.99587 57.9852 9.28031C57.3008 8.56476 56.4219 8.20698 55.3485 8.20698C54.6485 8.20698 54.0185 8.37031 53.4585 8.69698C52.8985 9.00809 52.4552 9.4592 52.1285 10.0503C51.8019 10.6414 51.6385 11.3259 51.6385 12.1036C51.6385 12.8814 51.8019 13.5659 52.1285 14.157C52.4552 14.7481 52.8985 15.207 53.4585 15.5336C54.0185 15.8448 54.6485 16.0003 55.3485 16.0003Z" fill="#B8BCCC"/>
<path d="M71.8346 5.73365C73.4057 5.73365 74.6657 6.19253 75.6146 7.11031C76.5635 8.02809 77.0379 9.3892 77.0379 11.1936V18.3336H74.1213V11.567C74.1213 10.4781 73.8646 9.66142 73.3513 9.11698C72.8379 8.55698 72.1068 8.27698 71.158 8.27698C70.0846 8.27698 69.2368 8.60365 68.6146 9.25698C67.9924 9.89476 67.6813 10.8203 67.6813 12.0336V18.3336H64.7646V1.02031H67.6813V7.32031C68.1635 6.80698 68.7546 6.41809 69.4546 6.15365C70.1702 5.87365 70.9635 5.73365 71.8346 5.73365Z" fill="#B8BCCC"/>
<path d="M92.8013 5.87364V18.3336H90.0246V16.747C89.5579 17.307 88.9746 17.7425 88.2746 18.0536C87.5746 18.3492 86.8201 18.497 86.0113 18.497C84.3468 18.497 83.0324 18.0381 82.0679 17.1203C81.119 16.187 80.6446 14.8103 80.6446 12.9903V5.87364H83.5612V12.5936C83.5612 13.7136 83.8101 14.5536 84.3079 15.1136C84.8213 15.6581 85.5446 15.9303 86.4779 15.9303C87.5201 15.9303 88.3446 15.6114 88.9513 14.9736C89.5735 14.3203 89.8846 13.387 89.8846 12.1736V5.87364H92.8013Z" fill="#B8BCCC"/>
<path d="M100.47 18.497C99.459 18.497 98.4712 18.3648 97.5067 18.1003C96.5423 17.8359 95.7723 17.5014 95.1967 17.097L96.3167 14.8803C96.8767 15.2536 97.5456 15.557 98.3234 15.7903C99.1167 16.0081 99.8945 16.117 100.657 16.117C102.399 16.117 103.27 15.6581 103.27 14.7403C103.27 14.3048 103.045 14.0014 102.593 13.8303C102.158 13.6592 101.45 13.4959 100.47 13.3403C99.4434 13.1848 98.6034 13.0059 97.9501 12.8036C97.3123 12.6014 96.7523 12.2514 96.2701 11.7536C95.8034 11.2403 95.5701 10.5325 95.5701 9.63031C95.5701 8.44809 96.0601 7.50698 97.0401 6.80698C98.0356 6.09142 99.3734 5.73365 101.053 5.73365C101.909 5.73365 102.765 5.83476 103.62 6.03698C104.476 6.22365 105.176 6.48031 105.72 6.80698L104.6 9.02365C103.542 8.40142 102.352 8.09031 101.03 8.09031C100.175 8.09031 99.5212 8.22253 99.0701 8.48698C98.6345 8.73587 98.4167 9.07031 98.4167 9.49031C98.4167 9.95698 98.6501 10.2914 99.1167 10.4936C99.599 10.6803 100.338 10.8592 101.333 11.0303C102.329 11.1859 103.146 11.3648 103.783 11.567C104.421 11.7692 104.966 12.1114 105.417 12.5936C105.883 13.0759 106.117 13.7603 106.117 14.647C106.117 15.8136 105.611 16.747 104.6 17.447C103.589 18.147 102.212 18.497 100.47 18.497Z" fill="#B8BCCC"/>
</svg>
