<svg width="38" height="38" viewBox="0 0 38 38" fill="none" xmlns="http://www.w3.org/2000/svg">
<path d="M13.9296 26.8578C21.1619 26.8578 27.0248 20.9949 27.0248 13.7626C27.0248 12.9429 26.9495 12.1409 26.8055 11.3629C26.0275 11.2189 25.2254 11.1436 24.4058 11.1436C17.1735 11.1436 11.3105 17.0065 11.3105 24.2388C11.3105 25.0585 11.3859 25.8605 11.5299 26.6385C12.3079 26.7825 13.1099 26.8578 13.9296 26.8578Z" fill="#B8BCCC"/>
<path opacity="0.8" fill-rule="evenodd" clip-rule="evenodd" d="M11.5296 26.6381C5.4433 25.5109 0.833984 20.1749 0.833984 13.7622C0.833984 6.52993 6.69692 0.666992 13.9292 0.666992C20.3419 0.666992 25.6779 5.27631 26.8051 11.3626C26.0271 11.2185 25.2251 11.1432 24.4054 11.1432C17.1731 11.1432 11.3102 17.0061 11.3102 24.2384C11.3102 25.0581 11.3855 25.8601 11.5296 26.6381Z" fill="#B8BCCC"/>
<path opacity="0.6" fill-rule="evenodd" clip-rule="evenodd" d="M13.929 26.8572C21.1613 26.8572 27.0242 20.9943 27.0242 13.762C27.0242 12.9423 26.9489 12.1402 26.8048 11.3623C32.8911 12.4894 37.5004 17.8255 37.5004 24.2382C37.5004 31.4705 31.6375 37.3334 24.4052 37.3334C17.9925 37.3334 12.6564 32.7241 11.5293 26.6378C12.3072 26.7819 13.1093 26.8572 13.929 26.8572Z" fill="#B8BCCC"/>
</svg>
