<svg width="90" height="24" viewBox="0 0 90 24" fill="none" xmlns="http://www.w3.org/2000/svg">
<path d="M9.12656 18.5338C13.6016 18.5338 16.8266 16.0088 17.1516 12.2588H13.4016C13.1016 14.0588 11.3766 15.2838 9.12656 15.2838C6.30156 15.2838 4.12656 13.3338 4.12656 9.58379C4.12656 5.83379 6.30156 3.85879 9.12656 3.85879C11.3266 3.85879 13.0516 5.08379 13.3016 6.90879H17.2266C16.7516 3.13379 13.5266 0.63379 9.12656 0.63379C4.45156 0.63379 0.351562 3.68379 0.351562 9.58379C0.351562 15.4838 4.37656 18.5338 9.12656 18.5338Z" fill="#B8BCCC"/>
<path d="M24.1109 5.53379C20.6609 5.53379 18.6109 7.55879 18.4609 10.0838H21.5609C21.6109 9.03379 22.3859 8.08379 23.9109 8.08379C25.3359 8.08379 26.1609 8.80879 26.1609 9.85879C26.1609 10.3838 25.8359 10.7838 25.2109 10.7838H23.0859C20.3359 10.7838 18.4859 12.2838 18.4859 14.7588C18.4859 16.9088 20.1609 18.5338 22.6109 18.5338C24.3359 18.5338 25.7359 17.7588 26.1609 16.5838V18.3338H29.6109V10.2338C29.6109 7.38379 27.2859 5.53379 24.1109 5.53379ZM23.4859 16.0088C22.5109 16.0088 21.8109 15.4338 21.8109 14.6088C21.8109 13.6338 22.5609 12.9838 23.6109 12.9838H26.1609V13.1588C26.1609 14.7588 25.1859 16.0088 23.4859 16.0088Z" fill="#B8BCCC"/>
<path d="M31.9463 23.4338H35.4213V17.2088C36.0963 18.0588 37.3213 18.5338 38.7463 18.5338C42.3713 18.5338 44.8213 15.9588 44.8213 12.0338C44.8213 8.10879 42.5713 5.53379 39.0463 5.53379C37.4213 5.53379 36.1713 6.13379 35.4213 7.10879V5.73379H31.9463V23.4338ZM38.3213 15.5338C36.4463 15.5338 35.2213 14.1338 35.2213 12.0338C35.2213 9.90879 36.4463 8.50879 38.3213 8.50879C40.1463 8.50879 41.3963 9.90879 41.3963 12.0338C41.3963 14.1338 40.1463 15.5338 38.3213 15.5338Z" fill="#B8BCCC"/>
<path d="M50.94 18.5338C53.89 18.5338 55.84 16.9588 55.84 14.5588C55.84 8.85879 48.94 11.7838 48.94 9.20879C48.94 8.40879 49.615 7.98379 50.59 7.98379C51.54 7.98379 52.515 8.55879 52.665 9.63379H55.69C55.565 7.15879 53.515 5.53379 50.49 5.53379C47.915 5.53379 45.99 7.10879 45.99 9.33379C45.99 14.6338 52.765 12.1088 52.765 14.6838C52.765 15.3838 52.015 15.9088 50.94 15.9088C49.64 15.9088 48.765 15.2088 48.64 14.0838H45.64C45.765 16.8088 47.865 18.5338 50.94 18.5338Z" fill="#B8BCCC"/>
<path d="M69.5652 5.73379H66.0652V12.6338C66.0652 14.2338 64.9902 15.4338 63.4652 15.4338C62.0402 15.4338 61.0402 14.3338 61.0402 12.8088V5.73379H57.5652V13.5838C57.5652 16.4588 59.4152 18.5338 62.2402 18.5338C63.9652 18.5338 65.3652 17.7838 66.0652 16.5838V18.3338H69.5652V5.73379Z" fill="#B8BCCC"/>
<path d="M72.0654 18.3338H75.5404V0.258789H72.0654V18.3338Z" fill="#B8BCCC"/>
<path d="M86.4613 14.0588C86.1863 15.1338 85.2613 15.6838 83.8613 15.6838C82.1113 15.6838 80.9863 14.5838 80.7363 12.8088H89.7863C89.8113 12.5338 89.8363 12.1588 89.8363 11.6838C89.8363 8.80879 88.0613 5.53379 83.6113 5.53379C79.3363 5.53379 77.3863 8.80879 77.3863 12.0088C77.3863 15.1838 79.5863 18.5338 83.8613 18.5338C86.9613 18.5338 89.3613 16.7838 89.8613 14.0588H86.4613ZM83.6113 8.08379C85.2863 8.08379 86.2613 9.20879 86.3613 10.6088H80.7863C81.0863 8.85879 82.0363 8.08379 83.6113 8.08379Z" fill="#B8BCCC"/>
</svg>
