<svg width="121" height="18" viewBox="0 0 121 18" fill="none" xmlns="http://www.w3.org/2000/svg">
<path d="M0.109375 0.672852V17.3329H3.77271V10.4495H10.7494V7.60285H3.77271V3.75285H11.8227V0.672852H0.109375Z" fill="#B8BCCC"/>
<path d="M21.0108 10.0062H15.6208C15.6363 9.77285 15.683 9.50841 15.7608 9.21285C15.8541 8.9173 16.0019 8.6373 16.2041 8.37285C16.4219 8.10841 16.7019 7.89063 17.0441 7.71952C17.4019 7.53285 17.8452 7.43952 18.3741 7.43952C19.183 7.43952 19.7819 7.6573 20.1708 8.09285C20.5752 8.52841 20.8552 9.16619 21.0108 10.0062ZM15.6208 12.1062H24.3241C24.3863 11.1729 24.3085 10.2784 24.0908 9.42285C23.873 8.5673 23.5152 7.80507 23.0174 7.13619C22.5352 6.4673 21.913 5.93841 21.1508 5.54952C20.3885 5.14508 19.4941 4.94285 18.4674 4.94285C17.5496 4.94285 16.7096 5.10619 15.9474 5.43285C15.2008 5.75952 14.5552 6.21063 14.0108 6.78619C13.4663 7.34619 13.0463 8.01507 12.7508 8.79285C12.4552 9.57063 12.3074 10.4106 12.3074 11.3129C12.3074 12.2462 12.4474 13.1017 12.7274 13.8795C13.023 14.6573 13.4352 15.3262 13.9641 15.8862C14.493 16.4462 15.1385 16.8817 15.9008 17.1929C16.663 17.4884 17.5185 17.6362 18.4674 17.6362C19.8363 17.6362 21.003 17.3251 21.9674 16.7029C22.9319 16.0806 23.6474 15.0462 24.1141 13.5995H21.1974C21.0885 13.9729 20.793 14.3306 20.3108 14.6729C19.8285 14.9995 19.253 15.1629 18.5841 15.1629C17.6508 15.1629 16.9352 14.9217 16.4374 14.4395C15.9396 13.9573 15.6674 13.1795 15.6208 12.1062Z" fill="#B8BCCC"/>
<path d="M25.4492 8.97952C25.4959 8.20174 25.6903 7.55619 26.0325 7.04285C26.3747 6.52952 26.8103 6.1173 27.3392 5.80619C27.8681 5.49507 28.4592 5.2773 29.1125 5.15285C29.7814 5.01285 30.4503 4.94285 31.1192 4.94285C31.7259 4.94285 32.3403 4.98952 32.9625 5.08285C33.5848 5.16063 34.1525 5.32396 34.6659 5.57285C35.1792 5.82174 35.5992 6.17174 35.9259 6.62285C36.2525 7.05841 36.4159 7.64174 36.4159 8.37285V14.6495C36.4159 15.194 36.447 15.7151 36.5092 16.2129C36.5714 16.7106 36.6803 17.084 36.8359 17.3329H33.4759C33.4136 17.1462 33.3592 16.9595 33.3125 16.7729C33.2814 16.5706 33.2581 16.3684 33.2425 16.1662C32.7136 16.7106 32.0914 17.0917 31.3759 17.3095C30.6603 17.5273 29.9292 17.6362 29.1825 17.6362C28.607 17.6362 28.0703 17.5662 27.5725 17.4262C27.0748 17.2862 26.6392 17.0684 26.2659 16.7729C25.8925 16.4773 25.597 16.104 25.3792 15.6529C25.177 15.2017 25.0759 14.6651 25.0759 14.0429C25.0759 13.3584 25.1925 12.7984 25.4259 12.3629C25.6748 11.9117 25.9859 11.554 26.3592 11.2895C26.7481 11.0251 27.1836 10.8306 27.6659 10.7062C28.1636 10.5662 28.6614 10.4573 29.1592 10.3795C29.657 10.3017 30.147 10.2395 30.6292 10.1929C31.1114 10.1462 31.5392 10.0762 31.9125 9.98285C32.2859 9.88952 32.5814 9.7573 32.7992 9.58619C33.017 9.39952 33.1181 9.13507 33.1025 8.79285C33.1025 8.43507 33.0403 8.15507 32.9159 7.95285C32.807 7.73507 32.6514 7.57174 32.4492 7.46285C32.2625 7.33841 32.037 7.26063 31.7725 7.22952C31.5236 7.18285 31.2514 7.15952 30.9559 7.15952C30.3025 7.15952 29.7892 7.29952 29.4159 7.57952C29.0425 7.85952 28.8247 8.32619 28.7625 8.97952H25.4492ZM33.1025 11.4295C32.9625 11.554 32.7836 11.6551 32.5659 11.7329C32.3636 11.7951 32.1381 11.8495 31.8892 11.8962C31.6559 11.9429 31.407 11.9817 31.1425 12.0129C30.8781 12.044 30.6136 12.0829 30.3492 12.1295C30.1003 12.1762 29.8514 12.2384 29.6025 12.3162C29.3692 12.394 29.1592 12.5029 28.9725 12.6429C28.8014 12.7673 28.6614 12.9306 28.5525 13.1329C28.4436 13.3351 28.3892 13.5917 28.3892 13.9029C28.3892 14.1984 28.4436 14.4473 28.5525 14.6495C28.6614 14.8517 28.8092 15.0151 28.9959 15.1395C29.1825 15.2484 29.4003 15.3262 29.6492 15.3729C29.8981 15.4195 30.1547 15.4429 30.4192 15.4429C31.0725 15.4429 31.5781 15.334 31.9359 15.1162C32.2936 14.8984 32.5581 14.6417 32.7292 14.3462C32.9003 14.0351 33.0014 13.724 33.0325 13.4129C33.0792 13.1017 33.1025 12.8529 33.1025 12.6662V11.4295Z" fill="#B8BCCC"/>
<path d="M42.4876 5.26952V1.65285H39.1743V5.26952H37.1676V7.48619H39.1743V14.6029C39.1743 15.2095 39.2754 15.6995 39.4776 16.0729C39.6799 16.4462 39.9521 16.734 40.2943 16.9362C40.6521 17.1384 41.0565 17.2706 41.5076 17.3329C41.9743 17.4106 42.4643 17.4495 42.9776 17.4495C43.3043 17.4495 43.6387 17.4417 43.981 17.4262C44.3232 17.4106 44.6343 17.3795 44.9143 17.3329V14.7662C44.7587 14.7973 44.5954 14.8206 44.4243 14.8362C44.2532 14.8517 44.0743 14.8595 43.8876 14.8595C43.3276 14.8595 42.9543 14.7662 42.7676 14.5795C42.581 14.3929 42.4876 14.0195 42.4876 13.4595V7.48619H44.9143V5.26952H42.4876Z" fill="#B8BCCC"/>
<path d="M45.7908 0.672852V17.3329H49.1041V11.0095C49.1041 9.78063 49.3063 8.90174 49.7108 8.37285C50.1152 7.82841 50.7685 7.55619 51.6708 7.55619C52.4641 7.55619 53.0163 7.80507 53.3274 8.30285C53.6385 8.78508 53.7941 9.52396 53.7941 10.5195V17.3329H57.1074V9.91285C57.1074 9.16618 57.0374 8.48952 56.8974 7.88285C56.773 7.26063 56.5474 6.73952 56.2208 6.31952C55.8941 5.88396 55.443 5.54952 54.8674 5.31618C54.3074 5.0673 53.5841 4.94285 52.6974 4.94285C52.0752 4.94285 51.4374 5.10619 50.7841 5.43285C50.1308 5.74396 49.5941 6.24952 49.1741 6.94952H49.1041V0.672852H45.7908Z" fill="#B8BCCC"/>
<path d="M67.0421 10.0062H61.6521C61.6677 9.77285 61.7144 9.50841 61.7921 9.21285C61.8855 8.9173 62.0333 8.6373 62.2355 8.37285C62.4533 8.10841 62.7333 7.89063 63.0755 7.71952C63.4333 7.53285 63.8766 7.43952 64.4055 7.43952C65.2144 7.43952 65.8133 7.6573 66.2021 8.09285C66.6066 8.52841 66.8866 9.16619 67.0421 10.0062ZM61.6521 12.1062H70.3555C70.4177 11.1729 70.3399 10.2784 70.1221 9.42285C69.9044 8.5673 69.5466 7.80507 69.0488 7.13619C68.5666 6.4673 67.9444 5.93841 67.1821 5.54952C66.4199 5.14508 65.5255 4.94285 64.4988 4.94285C63.581 4.94285 62.741 5.10619 61.9788 5.43285C61.2321 5.75952 60.5866 6.21063 60.0421 6.78619C59.4977 7.34619 59.0777 8.01507 58.7821 8.79285C58.4866 9.57063 58.3388 10.4106 58.3388 11.3129C58.3388 12.2462 58.4788 13.1017 58.7588 13.8795C59.0544 14.6573 59.4666 15.3262 59.9955 15.8862C60.5244 16.4462 61.1699 16.8817 61.9321 17.1929C62.6944 17.4884 63.5499 17.6362 64.4988 17.6362C65.8677 17.6362 67.0344 17.3251 67.9988 16.7029C68.9632 16.0806 69.6788 15.0462 70.1455 13.5995H67.2288C67.1199 13.9729 66.8244 14.3306 66.3421 14.6729C65.8599 14.9995 65.2844 15.1629 64.6155 15.1629C63.6821 15.1629 62.9666 14.9217 62.4688 14.4395C61.971 13.9573 61.6988 13.1795 61.6521 12.1062Z" fill="#B8BCCC"/>
<path d="M71.6206 5.26952V17.3329H74.9339V11.8962C74.9339 11.3517 74.9883 10.8462 75.0972 10.3795C75.2061 9.91285 75.385 9.50841 75.6339 9.16619C75.8984 8.80841 76.2406 8.52841 76.6606 8.32619C77.0806 8.12396 77.5939 8.02285 78.2006 8.02285C78.4028 8.02285 78.6128 8.03841 78.8306 8.06952C79.0484 8.08507 79.235 8.10841 79.3906 8.13952V5.05952C79.1261 4.98174 78.885 4.94285 78.6672 4.94285C78.2472 4.94285 77.8428 5.00507 77.4539 5.12952C77.065 5.25396 76.6995 5.43285 76.3572 5.66619C76.015 5.88396 75.7117 6.15619 75.4472 6.48285C75.1828 6.79396 74.9728 7.13619 74.8172 7.50952H74.7706V5.26952H71.6206Z" fill="#B8BCCC"/>
<path d="M84.0029 14.2529V3.75285H86.6163C87.5185 3.75285 88.2729 3.88507 88.8796 4.14952C89.5018 4.39841 89.9996 4.76396 90.3729 5.24619C90.7463 5.72841 91.0107 6.31174 91.1663 6.99619C91.3374 7.66507 91.4229 8.41952 91.4229 9.25952C91.4229 10.1773 91.3063 10.9551 91.0729 11.5929C90.8396 12.2306 90.5285 12.7517 90.1396 13.1562C89.7507 13.5451 89.3074 13.8251 88.8096 13.9962C88.3118 14.1673 87.7985 14.2529 87.2696 14.2529H84.0029ZM80.3396 0.672852V17.3329H87.5263C88.8018 17.3329 89.9063 17.1229 90.8396 16.7029C91.7885 16.2673 92.574 15.6762 93.1963 14.9295C93.834 14.1829 94.3085 13.2962 94.6196 12.2695C94.9307 11.2429 95.0863 10.1229 95.0863 8.90952C95.0863 7.52507 94.8918 6.31952 94.5029 5.29285C94.1296 4.26619 93.6007 3.41063 92.9163 2.72619C92.2474 2.04174 91.4463 1.52841 90.5129 1.18619C89.5951 0.843963 88.5996 0.672852 87.5263 0.672852H80.3396Z" fill="#B8BCCC"/>
<path d="M104.705 10.0062H99.3145C99.3301 9.77285 99.3767 9.50841 99.4545 9.21285C99.5478 8.9173 99.6956 8.6373 99.8978 8.37285C100.116 8.10841 100.396 7.89063 100.738 7.71952C101.096 7.53285 101.539 7.43952 102.068 7.43952C102.877 7.43952 103.476 7.6573 103.865 8.09285C104.269 8.52841 104.549 9.16619 104.705 10.0062ZM99.3145 12.1062H108.018C108.08 11.1729 108.002 10.2784 107.785 9.42285C107.567 8.5673 107.209 7.80507 106.711 7.13619C106.229 6.4673 105.607 5.93841 104.845 5.54952C104.082 5.14508 103.188 4.94285 102.161 4.94285C101.243 4.94285 100.403 5.10619 99.6412 5.43285C98.8945 5.75952 98.249 6.21063 97.7045 6.78619C97.1601 7.34619 96.7401 8.01507 96.4445 8.79285C96.149 9.57063 96.0012 10.4106 96.0012 11.3129C96.0012 12.2462 96.1412 13.1017 96.4212 13.8795C96.7167 14.6573 97.129 15.3262 97.6578 15.8862C98.1867 16.4462 98.8323 16.8817 99.5945 17.1929C100.357 17.4884 101.212 17.6362 102.161 17.6362C103.53 17.6362 104.697 17.3251 105.661 16.7029C106.626 16.0806 107.341 15.0462 107.808 13.5995H104.891C104.782 13.9729 104.487 14.3306 104.005 14.6729C103.522 14.9995 102.947 15.1629 102.278 15.1629C101.345 15.1629 100.629 14.9217 100.131 14.4395C99.6334 13.9573 99.3612 13.1795 99.3145 12.1062Z" fill="#B8BCCC"/>
<path d="M115.956 17.3329L120.04 5.26952H116.75L114.206 13.5062H114.16L111.616 5.26952H108.14L112.27 17.3329H115.956Z" fill="#B8BCCC"/>
</svg>
