<svg width="120" height="19" viewBox="0 0 120 19" fill="none" xmlns="http://www.w3.org/2000/svg">
<path d="M8.94961 18.5338C11.1996 18.5338 13.0496 17.3838 13.6246 15.6588V18.3338H16.9496V11.5838C16.9496 10.0588 15.7496 8.75879 14.1246 8.75879H9.37461V11.5838H12.7496C13.1746 11.5838 13.4496 11.8588 13.4496 12.2838C13.4496 13.9088 11.2996 15.4838 9.12461 15.4838C6.22461 15.4838 3.92461 13.2088 3.92461 9.58379C3.92461 5.95879 6.22461 3.85879 9.19961 3.85879C11.4496 3.85879 12.9996 5.08379 13.2746 6.95879H16.9996C16.7746 3.20879 13.6246 0.63379 9.22461 0.63379C4.59961 0.63379 0.349609 3.60879 0.349609 9.58379C0.349609 15.5588 4.47461 18.5338 8.94961 18.5338Z" fill="#B8BCCC"/>
<path d="M18.3769 18.3338H21.8519V0.258789H18.3769V18.3338Z" fill="#B8BCCC"/>
<path d="M29.3478 18.5338C33.2228 18.5338 35.9978 15.7838 35.9978 12.0338C35.9978 8.28379 33.2228 5.53379 29.3478 5.53379C25.4728 5.53379 22.6978 8.28379 22.6978 12.0338C22.6978 15.7838 25.4728 18.5338 29.3478 18.5338ZM29.3478 15.5338C27.4728 15.5338 26.1978 14.1088 26.1978 12.0338C26.1978 9.93379 27.4728 8.50879 29.3478 8.50879C31.2228 8.50879 32.4978 9.93379 32.4978 12.0338C32.4978 14.1088 31.2228 15.5338 29.3478 15.5338Z" fill="#B8BCCC"/>
<path d="M43.7736 18.5338C47.4986 18.5338 49.7236 15.9588 49.7236 12.0338C49.7236 8.10879 47.4986 5.53379 43.8236 5.53379C42.2486 5.53379 41.0236 6.13379 40.3236 7.05879V0.258789H36.8486V18.3338H40.3236V16.9588C41.0236 17.9338 42.3236 18.5338 43.7736 18.5338ZM43.2236 15.5338C41.3486 15.5338 40.1236 14.1338 40.1236 12.0338C40.1236 9.90879 41.3486 8.50879 43.2236 8.50879C45.0486 8.50879 46.2986 9.90879 46.2986 12.0338C46.2986 14.1338 45.0486 15.5338 43.2236 15.5338Z" fill="#B8BCCC"/>
<path d="M55.5406 5.53379C52.0906 5.53379 50.0406 7.55879 49.8906 10.0838H52.9906C53.0406 9.03379 53.8156 8.08379 55.3406 8.08379C56.7656 8.08379 57.5906 8.80879 57.5906 9.85879C57.5906 10.3838 57.2656 10.7838 56.6406 10.7838H54.5156C51.7656 10.7838 49.9156 12.2838 49.9156 14.7588C49.9156 16.9088 51.5906 18.5338 54.0406 18.5338C55.7656 18.5338 57.1656 17.7588 57.5906 16.5838V18.3338H61.0406V10.2338C61.0406 7.38379 58.7156 5.53379 55.5406 5.53379ZM54.9156 16.0088C53.9406 16.0088 53.2406 15.4338 53.2406 14.6088C53.2406 13.6338 53.9906 12.9838 55.0406 12.9838H57.5906V13.1588C57.5906 14.7588 56.6156 16.0088 54.9156 16.0088Z" fill="#B8BCCC"/>
<path d="M62.376 18.3338H65.851V0.258789H62.376V18.3338Z" fill="#B8BCCC"/>
<path d="M67.6969 18.3338H74.8469C78.5469 18.3338 81.0969 16.4338 81.0969 13.1088C81.0969 10.8088 79.7469 9.40879 78.1469 8.78379C79.1719 8.23379 80.1969 6.98379 80.1969 5.33379C80.1969 2.40879 77.8219 0.833789 74.6469 0.833789H67.6969V18.3338ZM71.3969 7.50879V3.80879H74.2969C75.9719 3.80879 76.7219 4.48379 76.7219 5.65879C76.7219 6.83379 75.9719 7.50879 74.3719 7.50879H71.3969ZM71.3969 15.0838V10.6838H74.5219C76.5969 10.6838 77.5219 11.4838 77.5219 12.9088C77.5219 14.3338 76.5969 15.0838 74.5219 15.0838H71.3969Z" fill="#B8BCCC"/>
<path d="M87.1422 5.53379C83.6922 5.53379 81.6422 7.55879 81.4922 10.0838H84.5922C84.6422 9.03379 85.4172 8.08379 86.9422 8.08379C88.3672 8.08379 89.1922 8.80879 89.1922 9.85879C89.1922 10.3838 88.8672 10.7838 88.2422 10.7838H86.1172C83.3672 10.7838 81.5172 12.2838 81.5172 14.7588C81.5172 16.9088 83.1922 18.5338 85.6422 18.5338C87.3672 18.5338 88.7672 17.7588 89.1922 16.5838V18.3338H92.6422V10.2338C92.6422 7.38379 90.3172 5.53379 87.1422 5.53379ZM86.5172 16.0088C85.5422 16.0088 84.8422 15.4338 84.8422 14.6088C84.8422 13.6338 85.5922 12.9838 86.6422 12.9838H89.1922V13.1588C89.1922 14.7588 88.2172 16.0088 86.5172 16.0088Z" fill="#B8BCCC"/>
<path d="M93.7775 18.3338H97.2775V11.4338C97.2775 9.80879 98.3525 8.63379 99.8775 8.63379C101.328 8.63379 102.303 9.73379 102.303 11.2588V18.3338H105.803V10.4838C105.803 7.58379 103.953 5.53379 101.103 5.53379C99.3775 5.53379 97.9775 6.25879 97.2775 7.48379V5.73379H93.7775V18.3338Z" fill="#B8BCCC"/>
<path d="M115.778 18.3338H119.978L114.553 10.6838L119.578 5.73379H115.178L110.803 10.0338V0.258789H107.303V18.3338H110.803V14.3838L112.203 13.0088L115.778 18.3338Z" fill="#B8BCCC"/>
</svg>
