<svg width="37" height="38" viewBox="0 0 37 38" fill="none" xmlns="http://www.w3.org/2000/svg">
<path opacity="0.8" d="M30.421 8.30285C30.0608 7.94267 29.7006 7.58248 29.3405 7.2223C28.2599 6.06971 27.1073 4.91713 25.6666 4.19676C24.0097 3.33232 22.2088 3.54842 20.4079 3.54842C17.6705 3.54842 10.827 3.54842 6.79297 3.54842L9.53037 7.2223C14.5009 7.2223 22.2809 7.2223 25.8827 7.2223C27.3955 7.2223 28.6921 7.51045 29.9167 8.30285C30.1329 8.37489 30.349 8.37489 30.421 8.30285Z" fill="#B8BCCC"/>
<path opacity="0.9" d="M33.4473 14.2101C33.0871 13.8499 32.7269 13.4897 32.3667 13.1295C31.2862 11.9769 30.1336 10.8243 28.6929 10.104C27.036 9.23954 25.2351 9.45565 23.4342 9.45565C21.057 9.45565 15.3661 9.45565 11.332 9.45565L14.0694 13.1295C18.9679 13.1295 25.6673 13.1295 28.981 13.1295C30.4938 13.1295 31.7905 13.4177 33.0151 14.2101C33.1591 14.2821 33.3032 14.2821 33.4473 14.2101Z" fill="#B8BCCC"/>
<path d="M36.8333 19.9728C36.4731 19.6126 36.1129 19.2524 35.7528 18.8922C34.6722 17.7396 33.5196 16.587 32.0789 15.8667C30.422 15.0022 28.6211 15.2183 26.8202 15.2183C24.5871 15.2183 19.6886 15.2183 15.7266 15.2183L18.4639 18.8922C23.2184 18.8922 29.2695 18.8922 32.295 18.8922C33.8078 18.8922 35.1044 19.1804 36.329 19.9728C36.5452 20.0448 36.6892 20.1168 36.8333 19.9728Z" fill="#B8BCCC"/>
<path opacity="0.8" d="M6.50586 29.6976C6.86604 30.0578 7.22623 30.4179 7.58641 30.7781C8.66696 31.9307 9.81954 33.0833 11.2603 33.8037C12.9171 34.6681 14.718 34.452 16.519 34.452H30.1339L27.3965 30.7781C22.426 30.7781 14.646 30.7781 11.0442 30.7781C9.5314 30.7781 8.23474 30.49 7.01011 29.6976C6.794 29.6255 6.64993 29.6255 6.50586 29.6976Z" fill="#B8BCCC"/>
<path opacity="0.9" d="M3.48047 23.7913C3.84065 24.1515 4.20084 24.5117 4.56102 24.8719C5.64157 26.0245 6.79415 27.1771 8.23488 27.8974C9.89173 28.7619 11.6926 28.5458 13.4936 28.5458H25.5957L22.8583 24.8719C17.9598 24.8719 11.2604 24.8719 7.94674 24.8719C6.43397 24.8719 5.13731 24.5837 3.91268 23.7913C3.76861 23.7193 3.62454 23.7193 3.48047 23.7913Z" fill="#B8BCCC"/>
<path d="M0.166016 17.9554C0.526199 18.3156 0.886382 18.6758 1.24657 19.0359C2.32712 20.1885 3.47971 21.3411 4.92044 22.0615C6.57728 22.9259 8.37819 22.7098 10.1791 22.7098H21.2728L18.5354 19.0359C13.7809 19.0359 7.72987 19.0359 4.70433 19.0359C3.19156 19.0359 1.89489 18.7478 0.67027 17.9554C0.45416 17.8834 0.310089 17.8834 0.166016 17.9554Z" fill="#B8BCCC"/>
</svg>
