<svg width="32" height="33" viewBox="0 0 32 33" fill="none" xmlns="http://www.w3.org/2000/svg">
<g clip-path="url(#clip0_1143_1263)">
<path d="M32 16.5C32 25.3366 24.8366 32.5 16 32.5C7.16344 32.5 0 25.3366 0 16.5C0 7.66344 7.16344 0.5 16 0.5C24.8366 0.5 32 7.66344 32 16.5ZM6.4 16.5C6.4 21.8019 10.6981 26.1 16 26.1C21.3019 26.1 25.6 21.8019 25.6 16.5C25.6 11.1981 21.3019 6.9 16 6.9C10.6981 6.9 6.4 11.1981 6.4 16.5Z" fill="#EDEFFF"/>
<path d="M32 16.5C32 19.6645 31.0616 22.7579 29.3035 25.3891C27.5454 28.0203 25.0466 30.0711 22.1229 31.2821C19.1993 32.4931 15.9823 32.8099 12.8786 32.1926C9.77486 31.5752 6.92393 30.0513 4.68629 27.8137C2.44865 25.5761 0.924799 22.7251 0.307435 19.6214C-0.309928 16.5177 0.00692538 13.3007 1.21793 10.3771C2.42893 7.45345 4.47969 4.95459 7.11088 3.19649C9.74206 1.43838 12.8355 0.5 16 0.5V6.9C14.1013 6.9 12.2452 7.46303 10.6665 8.51789C9.08781 9.57275 7.85736 11.0721 7.13076 12.8262C6.40415 14.5804 6.21404 16.5106 6.58446 18.3729C6.95488 20.2351 7.86919 21.9456 9.21177 23.2882C10.5544 24.6308 12.2649 25.5451 14.1271 25.9155C15.9894 26.286 17.9196 26.0958 19.6738 25.3692C21.4279 24.6426 22.9272 23.4122 23.9821 21.8335C25.037 20.2548 25.6 18.3987 25.6 16.5H32Z" fill="#1A3BAE"/>
</g>
<defs>
<clipPath id="clip0_1143_1263">
<rect width="32" height="32" fill="white" transform="translate(0 0.5)"/>
</clipPath>
</defs>
</svg>
