<svg width="20" height="21" viewBox="0 0 20 21" fill="none" xmlns="http://www.w3.org/2000/svg">
<path d="M5.00065 3.83366V17.167H15.0007V7.02402L11.8103 3.83366H5.00065ZM4.16732 2.16699H12.5007L16.4232 6.08958C16.5795 6.24586 16.6673 6.45782 16.6673 6.67883V18.0003C16.6673 18.4606 16.2942 18.8337 15.834 18.8337H4.16732C3.70708 18.8337 3.33398 18.4606 3.33398 18.0003V3.00033C3.33398 2.54009 3.70708 2.16699 4.16732 2.16699ZM10.834 8.83366V15.5003H9.16732V10.5003H6.66732V8.83366H10.834ZM6.66732 11.3337H8.33398V13.0003H6.66732V11.3337ZM11.6673 11.3337H13.334V13.0003H11.6673V11.3337ZM11.6673 8.83366H13.334V10.5003H11.6673V8.83366ZM6.66732 13.8337H8.33398V15.5003H6.66732V13.8337ZM11.6673 13.8337H13.334V15.5003H11.6673V13.8337Z" fill="#39CED7"/>
</svg>
